<?xml version="1.0" encoding="utf-8"?>
<!-- Generator: Adobe Illustrator 16.0.0, SVG Export Plug-In . SVG Version: 6.00 Build 0)  -->
<!DOCTYPE svg PUBLIC "-//W3C//DTD SVG 1.1//EN" "http://www.w3.org/Graphics/SVG/1.1/DTD/svg11.dtd">
<svg version="1.1" id="Layer_1" xmlns="http://www.w3.org/2000/svg" xmlns:xlink="http://www.w3.org/1999/xlink" x="0px" y="0px"
	 width="882.666px" height="172.667px" viewBox="0 0 882.666 172.667" enable-background="new 0 0 882.666 172.667"
	 xml:space="preserve">
<rect x="-1224.297" y="628.304" fill="#F6F6F6" width="1000" height="1000.001"/>
<g>
	<path d="M-2712.288-1118.339v70.771h-39.543v-143.975h30.822l57.793,73.204v-73.204h39.543v143.975h-31.431L-2712.288-1118.339z"/>
</g>
<g>
	<path d="M-2501.796-1082.041v34.473h-99.477v-143.975h99.541v34.472h-61.205v20.279h50.721v32.041h-50.721v22.711H-2501.796z"/>
</g>
<g>
	<path d="M-2479.499-1047.654v-143.803h61.978c7.019,0,13.501,1.453,19.444,4.355c5.94,2.904,11.037,6.684,15.291,11.342
		s7.596,9.994,10.025,15.999c2.43,6.01,3.646,12.051,3.646,18.127c0,6.349-1.148,12.527-3.443,18.535
		c-2.297,6.01-5.504,11.34-9.621,16c-4.12,4.658-9.114,8.373-14.988,11.139c-5.873,2.77-12.322,4.152-19.342,4.152h-23.494v44.154
		H-2479.499z M-2440.003-1126.24h20.861c2.43,0,4.689-1.113,6.785-3.34c2.092-2.229,3.139-6.246,3.139-12.054
		c0-5.939-1.215-9.99-3.645-12.152c-2.432-2.158-4.861-3.24-7.293-3.24h-19.848V-1126.24z"/>
</g>
<rect x="-4459.066" y="32.666" width="1204" height="282"/>
<rect x="-5735.066" y="-1716.463" fill="#6D6E71" width="1204" height="1200"/>
<rect x="-7070.867" y="-1716.463" fill="#27AAE1" width="1204" height="1200"/>
<rect x="-7070.866" y="-430.334" fill="#FFF200" width="1204" height="1202"/>
<rect x="-5733.066" y="-428.334" fill="#2BB673" width="1204" height="1202"/>
<g>
	<path fill="#27AAE1" d="M-5548.217,165.808v70.771h-39.543V92.604h30.822l57.793,73.204V92.604h39.543v143.975h-31.431
		L-5548.217,165.808z"/>
</g>
<g>
	<path fill="#191919" d="M-5154.012,92.481h9.035l61.611,144.09h-11.09l-20.332-47.487h-69.619l-20.332,47.487h-11.295
		L-5154.012,92.481z M-5117.662,180.679l-31.832-75.335l-32.449,75.335H-5117.662z"/>
	<path fill="#191919" d="M-5054.805,111.993v124.676h-10.533V92.5h8.055l102.85,126.91V92.5h10.533v144.168h-9.707
		L-5054.805,111.993z"/>
	<path fill="#191919" d="M-4925.875,236.571V92.596h9.158v143.975H-4925.875z"/>
	<path fill="#191919" d="M-4765.598,236.571V112.085l-57.957,97.117h-6.623l-57.959-97.117v124.485h-10.555V92.622h10.555
		l61.271,102.996l61.268-102.996h10.557v143.949H-4765.598z"/>
	<path fill="#191919" d="M-4643.076,225.405v11.166h-93.939V92.596h93.967v10.979h-82.965v52.907h72.434v11.034h-72.434v57.889
		H-4643.076z"/>
</g>
<text transform="matrix(1 0 0 1 -4912.3457 -243.3198)" display="none" fill="#1E1E1E" font-family="'Raleway-Light'" font-size="164.0217" letter-spacing="-7">ANIME</text>
<g>
	<path fill="#27AAE1" d="M-5337.725,202.107v34.472h-99.477V92.604h99.541v34.473h-61.205v20.279h50.721v32.039h-50.721v22.712
		H-5337.725z"/>
</g>
<g>
	<path fill="#27AAE1" d="M-5315.428,236.493V92.69h61.978c7.019,0,13.501,1.453,19.444,4.355c5.94,2.904,11.037,6.684,15.291,11.342
		s7.596,9.994,10.025,16c2.43,6.01,3.646,12.051,3.646,18.127c0,6.349-1.148,12.525-3.443,18.533c-2.297,6.01-5.504,11.341-9.621,16
		c-4.12,4.658-9.114,8.373-14.988,11.14c-5.873,2.769-12.322,4.152-19.342,4.152h-23.494v44.153H-5315.428z M-5275.932,157.907
		h20.861c2.43,0,4.689-1.113,6.785-3.34c2.092-2.229,3.139-6.246,3.139-12.053c0-5.939-1.215-9.99-3.645-12.152
		c-2.432-2.158-4.861-3.24-7.293-3.24h-19.848V157.907z"/>
</g>
<circle fill="#2B3990" cx="-5573.642" cy="70.123" r="13.493"/>
<circle fill="#2BB673" cx="-5537.173" cy="70.123" r="13.493"/>
<circle fill="#F9ED32" cx="-5499.957" cy="70.123" r="13.492"/>
<g>
	<path fill="#27AAE1" d="M-6886.017,163.808v70.771h-39.543V90.604h30.822l57.793,73.204V90.604h39.543v143.975h-31.432
		L-6886.017,163.808z"/>
</g>
<g>
	<path fill="#191919" d="M-6491.812,90.481h9.035l61.611,144.09h-11.09l-20.332-47.487h-69.619l-20.332,47.487h-11.295
		L-6491.812,90.481z M-6455.462,178.679l-31.832-75.335l-32.449,75.335H-6455.462z"/>
	<path fill="#191919" d="M-6392.604,109.993v124.676h-10.533V90.5h8.055l102.85,126.91V90.5h10.533v144.168h-9.707
		L-6392.604,109.993z"/>
	<path fill="#191919" d="M-6263.675,234.571V90.596h9.158v143.975H-6263.675z"/>
	<path fill="#191919" d="M-6103.397,234.571V110.085l-57.957,97.117h-6.623l-57.959-97.117v124.485h-10.555V90.622h10.555
		l61.271,102.996l61.268-102.996h10.557v143.949H-6103.397z"/>
	<path fill="#191919" d="M-5980.876,223.405v11.166h-93.939V90.596h93.967v10.979h-82.965v52.907h72.434v11.034h-72.434v57.889
		H-5980.876z"/>
</g>
<g>
	<path fill="#27AAE1" d="M-6675.524,200.107v34.472h-99.477V90.604h99.541v34.473h-61.205v20.279h50.721v32.039h-50.721v22.712
		H-6675.524z"/>
</g>
<g>
	<path fill="#27AAE1" d="M-6653.228,234.493V90.69h61.977c7.02,0,13.502,1.453,19.445,4.355c5.939,2.904,11.037,6.684,15.291,11.342
		s7.596,9.994,10.025,16c2.43,6.01,3.646,12.051,3.646,18.127c0,6.349-1.148,12.525-3.443,18.533c-2.297,6.01-5.504,11.341-9.621,16
		c-4.121,4.658-9.115,8.373-14.988,11.14c-5.873,2.769-12.322,4.152-19.342,4.152h-23.494v44.153H-6653.228z M-6613.731,155.907
		h20.861c2.43,0,4.689-1.113,6.785-3.34c2.092-2.229,3.139-6.246,3.139-12.053c0-5.939-1.215-9.99-3.645-12.152
		c-2.432-2.158-4.861-3.24-7.293-3.24h-19.848V155.907z"/>
</g>
<circle fill="#2B3990" cx="-6911.442" cy="68.123" r="13.492"/>
<circle fill="#2BB673" cx="-6874.974" cy="68.123" r="13.492"/>
<circle fill="#F9ED32" cx="-6837.757" cy="68.123" r="13.492"/>
<rect x="-7070.866" y="845.666" fill="#FFF200" width="1204" height="1200"/>
<g>
	<path fill="#27AAE1" d="M-6886.017,1439.808v70.771h-39.543v-143.975h30.822l57.793,73.204v-73.204h39.543v143.975h-31.432
		L-6886.017,1439.808z"/>
</g>
<g>
	<path fill="#FFFFFF" d="M-6491.812,1366.481h9.035l61.611,144.09h-11.09l-20.332-47.487h-69.619l-20.332,47.487h-11.295
		L-6491.812,1366.481z M-6455.462,1454.679l-31.832-75.335l-32.449,75.335H-6455.462z"/>
	<path fill="#FFFFFF" d="M-6392.604,1385.993v124.676h-10.533V1366.5h8.055l102.849,126.91V1366.5h10.533v144.168h-9.707
		L-6392.604,1385.993z"/>
	<path fill="#FFFFFF" d="M-6263.675,1510.571v-143.975h9.158v143.975H-6263.675z"/>
	<path fill="#FFFFFF" d="M-6103.398,1510.571v-124.485l-57.957,97.117h-6.623l-57.959-97.117v124.485h-10.555v-143.949h10.555
		l61.271,102.996l61.268-102.996h10.557v143.949H-6103.398z"/>
	<path fill="#FFFFFF" d="M-5980.876,1499.405v11.166h-93.939v-143.975h93.967v10.979h-82.965v52.907h72.434v11.034h-72.434v57.889
		H-5980.876z"/>
</g>
<g>
	<path fill="#27AAE1" d="M-6675.524,1476.107v34.472h-99.477v-143.975h99.541v34.473h-61.205v20.279h50.721v32.039h-50.721v22.712
		H-6675.524z"/>
</g>
<g>
	<path fill="#27AAE1" d="M-6653.228,1510.493V1366.69h61.977c7.02,0,13.502,1.453,19.445,4.355
		c5.939,2.904,11.037,6.684,15.291,11.342s7.596,9.994,10.025,16c2.43,6.01,3.646,12.051,3.646,18.127
		c0,6.349-1.148,12.525-3.443,18.533c-2.297,6.01-5.504,11.341-9.621,16c-4.121,4.658-9.115,8.373-14.988,11.14
		c-5.873,2.769-12.322,4.152-19.342,4.152h-23.494v44.153H-6653.228z M-6613.731,1431.907h20.861c2.43,0,4.689-1.113,6.785-3.34
		c2.092-2.229,3.139-6.246,3.139-12.053c0-5.939-1.215-9.99-3.645-12.152c-2.432-2.158-4.861-3.24-7.293-3.24h-19.848V1431.907z"/>
</g>
<circle fill="#2B3990" cx="-6911.442" cy="1344.123" r="13.492"/>
<circle fill="#2BB673" cx="-6874.974" cy="1344.123" r="13.492"/>
<circle fill="#F9ED32" cx="-6837.757" cy="1344.123" r="13.492"/>
<rect x="-5733.066" y="845.666" fill="#2BB673" width="1204" height="1200"/>
<g>
	<path fill="#27AAE1" d="M-5548.216,1439.808v70.771h-39.543v-143.975h30.822l57.793,73.204v-73.204h39.543v143.975h-31.432
		L-5548.216,1439.808z"/>
</g>
<g>
	<path fill="#FFFFFF" d="M-5154.011,1366.481h9.035l61.611,144.09h-11.09l-20.332-47.487h-69.619l-20.332,47.487h-11.295
		L-5154.011,1366.481z M-5117.662,1454.679l-31.832-75.335l-32.449,75.335H-5117.662z"/>
	<path fill="#FFFFFF" d="M-5054.804,1385.993v124.676h-10.533V1366.5h8.055l102.849,126.91V1366.5h10.533v144.168h-9.707
		L-5054.804,1385.993z"/>
	<path fill="#FFFFFF" d="M-4925.875,1510.571v-143.975h9.158v143.975H-4925.875z"/>
	<path fill="#FFFFFF" d="M-4765.598,1510.571v-124.485l-57.957,97.117h-6.623l-57.959-97.117v124.485h-10.555v-143.949h10.555
		l61.271,102.996l61.268-102.996h10.557v143.949H-4765.598z"/>
	<path fill="#FFFFFF" d="M-4643.076,1499.405v11.166h-93.939v-143.975h93.967v10.979h-82.965v52.907h72.434v11.034h-72.434v57.889
		H-4643.076z"/>
</g>
<g>
	<path fill="#27AAE1" d="M-5337.724,1476.107v34.472h-99.477v-143.975h99.541v34.473h-61.205v20.279h50.721v32.039h-50.721v22.712
		H-5337.724z"/>
</g>
<g>
	<path fill="#27AAE1" d="M-5315.427,1510.493V1366.69h61.977c7.02,0,13.502,1.453,19.445,4.355
		c5.939,2.904,11.037,6.684,15.291,11.342s7.596,9.994,10.025,16c2.43,6.01,3.646,12.051,3.646,18.127
		c0,6.349-1.148,12.525-3.443,18.533c-2.297,6.01-5.504,11.341-9.621,16c-4.121,4.658-9.115,8.373-14.988,11.14
		c-5.873,2.769-12.322,4.152-19.342,4.152h-23.494v44.153H-5315.427z M-5275.931,1431.907h20.861c2.43,0,4.689-1.113,6.785-3.34
		c2.092-2.229,3.139-6.246,3.139-12.053c0-5.939-1.215-9.99-3.645-12.152c-2.432-2.158-4.861-3.24-7.293-3.24h-19.848V1431.907z"/>
</g>
<circle fill="#2B3990" cx="-5573.642" cy="1344.123" r="13.492"/>
<circle fill="#2BB673" cx="-5537.173" cy="1344.123" r="13.492"/>
<circle fill="#F9ED32" cx="-5499.957" cy="1344.123" r="13.492"/>
<rect x="-8404.915" y="845.666" fill="#2B3990" width="1204" height="1200"/>
<g>
	<path fill="#27AAE1" d="M-8220.065,1439.808v70.771h-39.543v-143.975h30.823l57.792,73.204v-73.204h39.543v143.975h-31.432
		L-8220.065,1439.808z"/>
</g>
<g>
	<path fill="#FFFFFF" d="M-7825.86,1366.481h9.035l61.611,144.09h-11.09l-20.332-47.487h-69.619l-20.332,47.487h-11.295
		L-7825.86,1366.481z M-7789.51,1454.679l-31.832-75.335l-32.449,75.335H-7789.51z"/>
	<path fill="#FFFFFF" d="M-7726.653,1385.993v124.676h-10.533V1366.5h8.055l102.849,126.91V1366.5h10.533v144.168h-9.707
		L-7726.653,1385.993z"/>
	<path fill="#FFFFFF" d="M-7597.724,1510.571v-143.975h9.158v143.975H-7597.724z"/>
	<path fill="#FFFFFF" d="M-7437.446,1510.571v-124.485l-57.957,97.117h-6.623l-57.959-97.117v124.485h-10.555v-143.949h10.555
		l61.271,102.996l61.268-102.996h10.557v143.949H-7437.446z"/>
	<path fill="#FFFFFF" d="M-7314.925,1499.405v11.166h-93.939v-143.975h93.967v10.979h-82.965v52.907h72.434v11.034h-72.434v57.889
		H-7314.925z"/>
</g>
<g>
	<path fill="#27AAE1" d="M-8009.573,1476.107v34.472h-99.477v-143.975h99.541v34.473h-61.205v20.279h50.721v32.039h-50.721v22.712
		H-8009.573z"/>
</g>
<g>
	<path fill="#27AAE1" d="M-7987.276,1510.493V1366.69h61.977c7.02,0,13.502,1.453,19.445,4.355
		c5.939,2.904,11.037,6.684,15.291,11.342s7.596,9.994,10.025,16c2.429,6.01,3.646,12.051,3.646,18.127
		c0,6.349-1.148,12.525-3.443,18.533c-2.297,6.01-5.504,11.341-9.621,16c-4.121,4.658-9.115,8.373-14.988,11.14
		c-5.873,2.769-12.322,4.152-19.342,4.152h-23.494v44.153H-7987.276z M-7947.78,1431.907h20.861c2.43,0,4.689-1.113,6.785-3.34
		c2.092-2.229,3.139-6.246,3.139-12.053c0-5.939-1.215-9.99-3.645-12.152c-2.432-2.158-4.861-3.24-7.293-3.24h-19.848V1431.907z"/>
</g>
<circle fill="#2B3990" cx="-8245.491" cy="1344.123" r="13.492"/>
<circle fill="#2BB673" cx="-8209.021" cy="1344.123" r="13.492"/>
<circle fill="#F9ED32" cx="-8171.805" cy="1344.123" r="13.492"/>
<rect x="-8404.915" y="-435.334" fill="#2B3990" width="1204" height="1202.001"/>
<g>
	<path fill="#27AAE1" d="M-8220.065,158.808v70.771h-39.543V85.604h30.823l57.792,73.204V85.604h39.543v143.975h-31.432
		L-8220.065,158.808z"/>
</g>
<g>
	<path d="M-7825.86,85.481h9.035l61.611,144.09h-11.09l-20.332-47.486h-69.619l-20.332,47.486h-11.295L-7825.86,85.481z
		 M-7789.51,173.68l-31.832-75.336l-32.449,75.336H-7789.51z"/>
	<path d="M-7726.653,104.993v124.676h-10.533V85.5h8.055l102.849,126.91V85.5h10.533v144.168h-9.707L-7726.653,104.993z"/>
	<path d="M-7597.724,229.571V85.596h9.158v143.975H-7597.724z"/>
	<path d="M-7437.446,229.571V105.085l-57.957,97.118h-6.623l-57.959-97.118v124.485h-10.555V85.622h10.555l61.271,102.996
		l61.268-102.996h10.557v143.949H-7437.446z"/>
	<path d="M-7314.925,218.405v11.166h-93.939V85.596h93.967v10.979h-82.965v52.907h72.434v11.034h-72.434v57.889H-7314.925z"/>
</g>
<g>
	<path fill="#27AAE1" d="M-8009.573,195.108v34.471h-99.477V85.604h99.541v34.473h-61.205v20.279h50.721v32.039h-50.721v22.713
		H-8009.573z"/>
</g>
<g>
	<path fill="#27AAE1" d="M-7987.276,229.493V85.69h61.977c7.02,0,13.502,1.453,19.445,4.355c5.939,2.904,11.037,6.684,15.291,11.342
		s7.596,9.994,10.025,16c2.429,6.01,3.646,12.051,3.646,18.127c0,6.349-1.148,12.525-3.443,18.533
		c-2.297,6.01-5.504,11.341-9.621,16c-4.121,4.658-9.115,8.373-14.988,11.141s-12.322,4.152-19.342,4.152h-23.494v44.152H-7987.276z
		 M-7947.78,150.907h20.861c2.43,0,4.689-1.113,6.785-3.34c2.092-2.229,3.139-6.246,3.139-12.053c0-5.939-1.215-9.99-3.645-12.152
		c-2.432-2.158-4.861-3.24-7.293-3.24h-19.848V150.907z"/>
</g>
<circle fill="#2B3990" cx="-8245.491" cy="63.123" r="13.492"/>
<circle fill="#2BB673" cx="-8209.021" cy="63.123" r="13.492"/>
<circle fill="#F9ED32" cx="-8171.805" cy="63.123" r="13.492"/>
<rect x="-8404.915" y="-1716.463" fill="#414042" width="1204" height="1200"/>
<g>
	<path fill="#FFFFFF" d="M-8220.065-1122.321v70.771h-39.543v-143.975h30.823l57.792,73.204v-73.204h39.543v143.975h-31.432
		L-8220.065-1122.321z"/>
</g>
<g>
	<path fill="#27AAE1" d="M-7825.86-1195.648h9.035l61.611,144.09h-11.09l-20.332-47.487h-69.619l-20.332,47.487h-11.295
		L-7825.86-1195.648z M-7789.51-1107.45l-31.832-75.335l-32.449,75.335H-7789.51z"/>
	<path fill="#27AAE1" d="M-7726.653-1176.136v124.676h-10.533v-144.168h8.055l102.849,126.91v-126.91h10.533v144.168h-9.707
		L-7726.653-1176.136z"/>
	<path fill="#27AAE1" d="M-7597.724-1051.558v-143.975h9.158v143.975H-7597.724z"/>
	<path fill="#27AAE1" d="M-7437.446-1051.558v-124.485l-57.957,97.117h-6.623l-57.959-97.117v124.485h-10.555v-143.949h10.555
		l61.271,102.996l61.268-102.996h10.557v143.949H-7437.446z"/>
	<path fill="#27AAE1" d="M-7314.925-1062.724v11.166h-93.939v-143.975h93.967v10.979h-82.965v52.907h72.434v11.034h-72.434v57.889
		H-7314.925z"/>
</g>
<g>
	<path fill="#FFFFFF" d="M-8009.573-1086.022v34.472h-99.477v-143.975h99.541v34.473h-61.205v20.279h50.721v32.039h-50.721v22.712
		H-8009.573z"/>
</g>
<g>
	<path fill="#FFFFFF" d="M-7987.276-1051.636v-143.803h61.977c7.02,0,13.502,1.453,19.445,4.355
		c5.939,2.904,11.037,6.684,15.291,11.342s7.596,9.994,10.025,16c2.429,6.01,3.646,12.051,3.646,18.127
		c0,6.349-1.148,12.525-3.443,18.533c-2.297,6.01-5.504,11.341-9.621,16c-4.121,4.658-9.115,8.373-14.988,11.14
		c-5.873,2.769-12.322,4.152-19.342,4.152h-23.494v44.153H-7987.276z M-7947.78-1130.222h20.861c2.43,0,4.689-1.113,6.785-3.34
		c2.092-2.229,3.139-6.246,3.139-12.053c0-5.939-1.215-9.99-3.645-12.152c-2.432-2.158-4.861-3.24-7.293-3.24h-19.848V-1130.222z"/>
</g>
<circle fill="#2B3990" cx="-8245.491" cy="-1218.006" r="13.492"/>
<circle fill="#2BB673" cx="-8209.021" cy="-1218.006" r="13.492"/>
<circle fill="#F9ED32" cx="-8171.805" cy="-1218.006" r="13.492"/>
<g>
	<path fill="#FFFFFF" d="M-6891.83-1120.286v70.771h-39.543v-143.975h30.822l57.793,73.204v-73.204h39.543v143.975h-31.431
		L-6891.83-1120.286z"/>
</g>
<g>
	<path fill="#191919" d="M-6497.625-1193.613h9.035l61.611,144.09h-11.09l-20.332-47.487h-69.619l-20.332,47.487h-11.295
		L-6497.625-1193.613z M-6461.275-1105.415l-31.832-75.335l-32.449,75.335H-6461.275z"/>
	<path fill="#191919" d="M-6398.418-1174.101v124.676h-10.533v-144.168h8.055l102.85,126.91v-126.91h10.533v144.168h-9.707
		L-6398.418-1174.101z"/>
	<path fill="#191919" d="M-6269.488-1049.523v-143.975h9.158v143.975H-6269.488z"/>
	<path fill="#191919" d="M-6109.21-1049.523v-124.485l-57.957,97.117h-6.623l-57.959-97.117v124.485h-10.555v-143.949h10.555
		l61.271,102.996l61.268-102.996h10.557v143.949H-6109.21z"/>
	<path fill="#191919" d="M-5986.689-1060.689v11.166h-93.938v-143.975h93.965v10.979h-82.963v52.907h72.432v11.034h-72.432v57.889
		H-5986.689z"/>
</g>
<g>
	<path fill="#FFFFFF" d="M-6681.337-1083.987v34.472h-99.477v-143.975h99.541v34.473h-61.205v20.279h50.721v32.039h-50.721v22.712
		H-6681.337z"/>
</g>
<g>
	<path fill="#FFFFFF" d="M-6659.041-1049.601v-143.803h61.978c7.019,0,13.501,1.453,19.444,4.355
		c5.94,2.904,11.037,6.684,15.291,11.342s7.596,9.994,10.025,16c2.43,6.01,3.646,12.051,3.646,18.127
		c0,6.349-1.148,12.525-3.443,18.533c-2.297,6.01-5.504,11.341-9.621,16c-4.12,4.658-9.114,8.373-14.988,11.14
		c-5.873,2.769-12.322,4.152-19.342,4.152h-23.494v44.153H-6659.041z M-6619.544-1128.187h20.861c2.43,0,4.689-1.113,6.785-3.34
		c2.092-2.229,3.139-6.246,3.139-12.053c0-5.939-1.215-9.99-3.645-12.152c-2.432-2.158-4.861-3.24-7.293-3.24h-19.848V-1128.187z"/>
</g>
<circle fill="#2B3990" cx="-6917.255" cy="-1215.971" r="13.493"/>
<circle fill="#2BB673" cx="-6880.786" cy="-1215.971" r="13.493"/>
<circle fill="#F9ED32" cx="-6843.57" cy="-1215.971" r="13.492"/>
<g>
	<path fill="#27AAE1" d="M-5537.199-1121.339v70.771h-39.543v-143.975h30.822l57.793,73.204v-73.204h39.543v143.975h-31.431
		L-5537.199-1121.339z"/>
</g>
<g>
	<path fill="#FFFFFF" d="M-5142.994-1194.666h9.035l61.61,144.09h-11.09l-20.331-47.487h-69.619l-20.332,47.487h-11.295
		L-5142.994-1194.666z M-5106.645-1106.468l-31.832-75.335l-32.449,75.335H-5106.645z"/>
	<path fill="#FFFFFF" d="M-5043.788-1175.154v124.676h-10.533v-144.168h8.055l102.851,126.91v-126.91h10.533v144.168h-9.707
		L-5043.788-1175.154z"/>
	<path fill="#FFFFFF" d="M-4914.857-1050.576v-143.975h9.158v143.975H-4914.857z"/>
	<path fill="#FFFFFF" d="M-4754.58-1050.576v-124.485l-57.957,97.117h-6.623l-57.959-97.117v124.485h-10.555v-143.949h10.555
		l61.271,102.996l61.268-102.996h10.557v143.949H-4754.58z"/>
	<path fill="#FFFFFF" d="M-4632.059-1061.742v11.166h-93.938v-143.975h93.965v10.979h-82.963v52.907h72.432v11.034h-72.432v57.889
		H-4632.059z"/>
</g>
<g>
	<path fill="#27AAE1" d="M-5326.707-1085.04v34.472h-99.477v-143.975h99.541v34.473h-61.205v20.279h50.721v32.039h-50.721v22.712
		H-5326.707z"/>
</g>
<g>
	<path fill="#27AAE1" d="M-5304.41-1050.654v-143.803h61.978c7.019,0,13.501,1.453,19.444,4.355
		c5.94,2.904,11.037,6.684,15.291,11.342s7.596,9.994,10.025,16c2.43,6.01,3.646,12.051,3.646,18.127
		c0,6.349-1.148,12.525-3.443,18.533c-2.297,6.01-5.504,11.341-9.621,16c-4.12,4.658-9.114,8.373-14.988,11.14
		c-5.873,2.769-12.322,4.152-19.342,4.152h-23.494v44.153H-5304.41z M-5264.914-1129.24h20.861c2.43,0,4.689-1.113,6.785-3.34
		c2.092-2.229,3.139-6.246,3.139-12.053c0-5.939-1.215-9.99-3.645-12.152c-2.432-2.158-4.861-3.24-7.293-3.24h-19.848V-1129.24z"/>
</g>
<circle fill="#2B3990" cx="-5562.625" cy="-1217.024" r="13.493"/>
<circle fill="#2BB673" cx="-5526.156" cy="-1217.024" r="13.493"/>
<circle fill="#F9ED32" cx="-5488.939" cy="-1217.024" r="13.492"/>
<g>
	<path fill="#27AAE1" d="M-2716.288-1121.339v70.771h-39.543v-143.975h30.822l57.793,73.204v-73.204h39.543v143.975h-31.431
		L-2716.288-1121.339z"/>
</g>
<g>
	<path fill="#414042" d="M-2322.083-1194.666h9.035l61.61,144.09h-11.09l-20.331-47.488h-69.619l-20.332,47.488h-11.295
		L-2322.083-1194.666z M-2285.733-1106.468l-31.832-75.334l-32.449,75.334H-2285.733z"/>
	<path fill="#414042" d="M-2222.877-1175.154v124.676h-10.533v-144.168h8.055l102.851,126.911v-126.911h10.533v144.168h-9.707
		L-2222.877-1175.154z"/>
	<path fill="#414042" d="M-2093.946-1050.576v-143.975h9.158v143.975H-2093.946z"/>
	<path fill="#414042" d="M-1933.669-1050.576v-124.486l-57.957,97.117h-6.623l-57.959-97.117v124.486h-10.555v-143.95h10.555
		l61.271,102.997l61.268-102.997h10.557v143.95H-1933.669z"/>
	<path fill="#414042" d="M-1811.147-1061.742v11.166h-93.938v-143.975h93.965v10.979h-82.963v52.907h72.432v11.035h-72.432v57.889
		H-1811.147z"/>
</g>
<g>
	<path fill="#27AAE1" d="M-2505.796-1085.041v34.473h-99.477v-143.975h99.541v34.472h-61.205v20.279h50.721v32.041h-50.721v22.711
		H-2505.796z"/>
</g>
<g>
	<path fill="#27AAE1" d="M-2483.499-1050.654v-143.803h61.978c7.019,0,13.501,1.453,19.444,4.355
		c5.94,2.904,11.037,6.684,15.291,11.342s7.596,9.994,10.025,15.999c2.43,6.01,3.646,12.051,3.646,18.127
		c0,6.349-1.148,12.527-3.443,18.535c-2.297,6.01-5.504,11.34-9.621,16c-4.12,4.658-9.114,8.373-14.988,11.139
		c-5.873,2.77-12.322,4.152-19.342,4.152h-23.494v44.154H-2483.499z M-2444.003-1129.24h20.861c2.43,0,4.689-1.113,6.785-3.34
		c2.092-2.229,3.139-6.246,3.139-12.054c0-5.939-1.215-9.99-3.645-12.152c-2.432-2.158-4.861-3.24-7.293-3.24h-19.848V-1129.24z"/>
</g>
<circle fill="#2B3990" cx="-2741.713" cy="-1217.024" r="13.493"/>
<circle fill="#2BB673" cx="-2705.245" cy="-1217.024" r="13.493"/>
<circle fill="#F9ED32" cx="-2668.028" cy="-1217.024" r="13.492"/>
<g>
	<path fill="#27AAE1" d="M-2716.288,159.79v70.771h-39.543V86.586h30.822l57.793,73.203V86.586h39.543v143.975h-31.431
		L-2716.288,159.79z"/>
</g>
<g>
	<path fill="#414042" d="M-2322.083,86.463h9.035l61.61,144.09h-11.09l-20.331-47.488h-69.619l-20.332,47.488h-11.295
		L-2322.083,86.463z M-2285.733,174.661l-31.832-75.334l-32.449,75.334H-2285.733z"/>
	<path fill="#414042" d="M-2222.877,105.975v124.676h-10.533V86.483h8.055l102.851,126.91V86.483h10.533v144.168h-9.707
		L-2222.877,105.975z"/>
	<path fill="#414042" d="M-2093.946,230.553V86.579h9.158v143.975H-2093.946z"/>
	<path fill="#414042" d="M-1933.669,230.553V106.067l-57.957,97.117h-6.623l-57.959-97.117v124.486h-10.555V86.604h10.555
		l61.271,102.996l61.268-102.996h10.557v143.949H-1933.669z"/>
	<path fill="#414042" d="M-1811.147,219.387v11.166h-93.938V86.579h93.965v10.979h-82.963v52.906h72.432v11.035h-72.432v57.889
		H-1811.147z"/>
</g>
<g>
	<path fill="#27AAE1" d="M-2505.796,196.088v34.473h-99.477V86.586h99.541v34.471h-61.205v20.279h50.721v32.041h-50.721v22.711
		H-2505.796z"/>
</g>
<g>
	<path fill="#27AAE1" d="M-2483.499,230.475V86.672h61.978c7.019,0,13.501,1.453,19.444,4.355
		c5.94,2.904,11.037,6.684,15.291,11.342s7.596,9.994,10.025,15.998c2.43,6.01,3.646,12.051,3.646,18.127
		c0,6.35-1.148,12.527-3.443,18.535c-2.297,6.01-5.504,11.34-9.621,16c-4.12,4.658-9.114,8.373-14.988,11.139
		c-5.873,2.77-12.322,4.152-19.342,4.152h-23.494v44.154H-2483.499z M-2444.003,151.889h20.861c2.43,0,4.689-1.113,6.785-3.34
		c2.092-2.229,3.139-6.246,3.139-12.055c0-5.939-1.215-9.99-3.645-12.152c-2.432-2.158-4.861-3.24-7.293-3.24h-19.848V151.889z"/>
</g>
<circle fill="#2B3990" cx="-2741.713" cy="64.105" r="13.493"/>
<circle fill="#2BB673" cx="-2705.245" cy="64.105" r="13.493"/>
<circle fill="#F9ED32" cx="-2668.028" cy="64.105" r="13.492"/>
<rect x="-2853.438" y="838.526" fill="#6D6E71" width="1204" height="1199.999"/>
<g>
	<path fill="#27AAE1" d="M-2716.288,1440.79v70.771h-39.543v-143.975h30.822l57.793,73.203v-73.203h39.543v143.975h-31.431
		L-2716.288,1440.79z"/>
</g>
<g>
	<path fill="#FFFFFF" d="M-2322.083,1367.463h9.035l61.61,144.09h-11.09l-20.331-47.488h-69.619l-20.332,47.488h-11.295
		L-2322.083,1367.463z M-2285.733,1455.661l-31.832-75.334l-32.449,75.334H-2285.733z"/>
	<path fill="#FFFFFF" d="M-2222.877,1386.975v124.676h-10.533v-144.168h8.055l102.851,126.91v-126.91h10.533v144.168h-9.707
		L-2222.877,1386.975z"/>
	<path fill="#FFFFFF" d="M-2093.946,1511.553v-143.975h9.158v143.975H-2093.946z"/>
	<path fill="#FFFFFF" d="M-1933.669,1511.553v-124.486l-57.957,97.117h-6.623l-57.959-97.117v124.486h-10.555v-143.949h10.555
		l61.271,102.996l61.268-102.996h10.557v143.949H-1933.669z"/>
	<path fill="#FFFFFF" d="M-1811.147,1500.387v11.166h-93.938v-143.975h93.965v10.979h-82.963v52.906h72.432v11.035h-72.432v57.889
		H-1811.147z"/>
</g>
<g>
	<path fill="#27AAE1" d="M-2505.796,1477.088v34.473h-99.477v-143.975h99.541v34.471h-61.205v20.279h50.721v32.041h-50.721v22.711
		H-2505.796z"/>
</g>
<g>
	<path fill="#27AAE1" d="M-2483.499,1511.475v-143.803h61.978c7.019,0,13.501,1.453,19.444,4.355
		c5.94,2.904,11.037,6.684,15.291,11.342s7.596,9.994,10.025,15.998c2.43,6.01,3.646,12.051,3.646,18.127
		c0,6.35-1.148,12.527-3.443,18.535c-2.297,6.01-5.504,11.34-9.621,16c-4.12,4.658-9.114,8.373-14.988,11.139
		c-5.873,2.77-12.322,4.152-19.342,4.152h-23.494v44.154H-2483.499z M-2444.003,1432.889h20.861c2.43,0,4.689-1.113,6.785-3.34
		c2.092-2.229,3.139-6.246,3.139-12.055c0-5.939-1.215-9.99-3.645-12.152c-2.432-2.158-4.861-3.24-7.293-3.24h-19.848V1432.889z"/>
</g>
<circle fill="#2B3990" cx="-2741.713" cy="1345.105" r="13.493"/>
<circle fill="#2BB673" cx="-2705.245" cy="1345.105" r="13.493"/>
<circle fill="#F9ED32" cx="-2668.028" cy="1345.105" r="13.492"/>
<g>
	<g>
		<path fill="#27AAE1" d="M41.626,104.393v65.471H5.046V36.676h28.512l53.463,67.717V36.676h36.578v133.188H94.524L41.626,104.393z"
			/>
	</g>
	<g>
		<path fill="#191919" d="M406.29,36.561h8.357l56.994,133.295h-10.258l-18.809-43.93h-64.402l-18.808,43.93h-10.448L406.29,36.561z
			 M439.917,118.151L410.47,48.461l-30.018,69.689H439.917z"/>
		<path fill="#191919" d="M498.063,54.612v115.334h-9.744V36.581h7.451l95.143,117.4v-117.4h9.743v133.365h-8.979L498.063,54.612z"
			/>
		<path fill="#191919" d="M617.33,169.856V36.668h8.474v133.188H617.33z"/>
		<path fill="#191919" d="M765.599,169.856V54.698l-53.616,89.84h-6.126l-53.615-89.84v115.158h-9.764V36.692h9.764l56.68,95.279
			l56.678-95.279h9.767v133.164H765.599z"/>
		<path fill="#191919" d="M878.938,159.526v10.33h-86.9V36.668h86.924v10.156h-76.747v48.943h67.007v10.207h-67.007v53.551H878.938z
			"/>
	</g>
	<g>
		<path fill="#27AAE1" d="M236.343,137.973v31.891h-92.021V36.676h92.082v31.889h-56.617v18.76h46.918v29.639h-46.918v21.01H236.343
			z"/>
	</g>
	<g>
		<path fill="#27AAE1" d="M256.97,169.782V36.754h57.332c6.493,0,12.49,1.346,17.988,4.029c5.496,2.688,10.211,6.184,14.145,10.492
			c3.938,4.309,7.027,9.246,9.275,14.801c2.248,5.561,3.372,11.148,3.372,16.77c0,5.873-1.062,11.586-3.186,17.145
			s-5.089,10.49-8.899,14.801c-3.811,4.309-8.43,7.744-13.866,10.305c-5.431,2.563-11.397,3.842-17.891,3.842h-21.733v40.844H256.97
			z M293.507,97.084h19.299c2.246,0,4.338-1.029,6.275-3.088c1.936-2.063,2.902-5.779,2.902-11.15c0-5.494-1.123-9.242-3.371-11.242
			c-2.25-1.996-4.497-2.998-6.747-2.998h-18.358V97.084z"/>
	</g>
	<circle fill="#2B3990" cx="18.104" cy="15.879" r="12.482"/>
	<circle fill="#2BB673" cx="51.842" cy="15.879" r="12.481"/>
	<circle fill="#F9ED32" cx="86.268" cy="15.879" r="12.48"/>
</g>
<g>
	<g>
		<path fill="#27AAE1" d="M-1111.788,1145.641v64.049h-35.786v-130.296h27.893l52.302,66.247v-66.247h35.784v130.296h-28.442
			L-1111.788,1145.641z"/>
	</g>
	<g>
		<path fill="#191919" d="M-755.042,1079.282h8.175l55.759,130.4h-10.035l-18.4-42.976h-63.004l-18.4,42.976h-10.221
			L-755.042,1079.282z M-722.146,1159.1l-28.808-68.177l-29.367,68.177H-722.146z"/>
		<path fill="#191919" d="M-665.261,1096.941v112.829h-9.533V1079.3h7.29l93.077,114.852V1079.3h9.53v130.47h-8.784
			L-665.261,1096.941z"/>
		<path fill="#191919" d="M-548.584,1209.682v-130.296h8.29v130.296H-548.584z"/>
		<path fill="#191919" d="M-403.534,1209.682v-112.657l-52.451,87.889h-5.994l-52.451-87.889v112.657h-9.551V1079.41h9.551
			l55.449,93.211l55.447-93.211h9.554v130.272H-403.534z"/>
		<path fill="#191919" d="M-292.655,1199.577v10.105h-85.014v-130.296h85.036v9.937h-75.079v47.88h65.551v9.986h-65.551v52.388
			H-292.655z"/>
	</g>
	<g>
		<path fill="#27AAE1" d="M-921.301,1178.492v31.198h-90.022v-130.296h90.083v31.196h-55.388v18.353h45.899v28.995h-45.899v20.554
			H-921.301z"/>
	</g>
	<g>
		<path fill="#27AAE1" d="M-901.121,1209.61v-130.14h56.088c6.354,0,12.22,1.317,17.598,3.942
			c5.377,2.629,9.989,6.049,13.838,10.265c3.853,4.215,6.874,9.045,9.074,14.479c2.199,5.439,3.3,10.906,3.3,16.405
			c0,5.745-1.039,11.334-3.117,16.772c-2.078,5.438-4.979,10.262-8.707,14.479c-3.728,4.215-8.246,7.575-13.564,10.08
			c-5.313,2.508-11.15,3.759-17.505,3.759h-21.258v39.957H-901.121z M-865.375,1138.491h18.878c2.196,0,4.244-1.007,6.14-3.021
			c1.894-2.018,2.838-5.654,2.838-10.908c0-5.375-1.098-9.042-3.297-10.998c-2.2-1.953-4.397-2.934-6.599-2.934h-17.96V1138.491z"/>
	</g>
	<path fill="#2B3990" d="M-1122.588,1059.049c0,6.742-5.469,12.211-12.213,12.211c-6.741,0-12.21-5.469-12.21-12.211
		c0-6.743,5.469-12.21,12.21-12.21C-1128.057,1046.839-1122.588,1052.306-1122.588,1059.049z"/>
	<circle fill="#2BB673" cx="-1101.794" cy="1059.049" r="12.21"/>
	<circle fill="#F9ED32" cx="-1068.115" cy="1059.049" r="12.21"/>
</g>
<g>
	<path fill="#27AAE1" d="M-4274.217,185.842v70.771h-39.543V112.638h30.822l57.793,73.204v-73.204h39.543v143.975h-31.431
		L-4274.217,185.842z"/>
</g>
<g>
	<path fill="#FFFFFF" d="M-3880.012,112.515h9.035l61.611,144.09h-11.09l-20.332-47.487h-69.619l-20.332,47.487h-11.295
		L-3880.012,112.515z M-3843.662,200.713l-31.832-75.335l-32.449,75.335H-3843.662z"/>
	<path fill="#FFFFFF" d="M-3780.805,132.027v124.676h-10.533V112.535h8.055l102.85,126.91v-126.91h10.533v144.168h-9.707
		L-3780.805,132.027z"/>
	<path fill="#FFFFFF" d="M-3651.875,256.605V112.63h9.158v143.975H-3651.875z"/>
	<path fill="#FFFFFF" d="M-3491.598,256.605V132.12l-57.957,97.117h-6.623l-57.959-97.117v124.485h-10.555V112.656h10.555
		l61.271,102.996l61.268-102.996h10.557v143.949H-3491.598z"/>
	<path fill="#FFFFFF" d="M-3369.076,245.439v11.166h-93.939V112.63h93.967v10.979h-82.965v52.907h72.434v11.034h-72.434v57.889
		H-3369.076z"/>
</g>
<g>
	<path fill="#27AAE1" d="M-4063.725,222.141v34.472h-99.477V112.638h99.541v34.473h-61.205v20.279h50.721v32.039h-50.721v22.712
		H-4063.725z"/>
</g>
<g>
	<path fill="#27AAE1" d="M-4041.428,256.527V112.724h61.978c7.019,0,13.501,1.453,19.444,4.355
		c5.94,2.904,11.037,6.684,15.291,11.342s7.596,9.994,10.025,16c2.43,6.01,3.646,12.051,3.646,18.127
		c0,6.349-1.148,12.525-3.443,18.533c-2.297,6.01-5.504,11.341-9.621,16c-4.12,4.658-9.114,8.373-14.988,11.14
		c-5.873,2.769-12.322,4.152-19.342,4.152h-23.494v44.153H-4041.428z M-4001.932,177.941h20.861c2.43,0,4.689-1.113,6.785-3.34
		c2.092-2.229,3.139-6.246,3.139-12.053c0-5.939-1.215-9.99-3.645-12.152c-2.432-2.158-4.861-3.24-7.293-3.24h-19.848V177.941z"/>
</g>
<circle fill="#2B3990" cx="-4299.642" cy="90.157" r="13.493"/>
<circle fill="#2BB673" cx="-4263.173" cy="90.157" r="13.493"/>
<circle fill="#F9ED32" cx="-4225.957" cy="90.157" r="13.492"/>
<rect x="-4459.066" y="-682.73" fill="#FFF200" width="1204" height="282"/>
<g>
	<path fill="#27AAE1" d="M-4274.217-529.553v70.771h-39.543v-143.975h30.822l57.793,73.204v-73.204h39.543v143.975h-31.431
		L-4274.217-529.553z"/>
</g>
<g>
	<path fill="#FFFFFF" d="M-3880.012-602.88h9.035l61.611,144.09h-11.09l-20.332-47.487h-69.619l-20.332,47.487h-11.295
		L-3880.012-602.88z M-3843.662-514.682l-31.832-75.335l-32.449,75.335H-3843.662z"/>
	<path fill="#FFFFFF" d="M-3780.805-583.369v124.676h-10.533v-144.168h8.055l102.85,126.91v-126.91h10.533v144.168h-9.707
		L-3780.805-583.369z"/>
	<path fill="#FFFFFF" d="M-3651.875-458.791v-143.975h9.158v143.975H-3651.875z"/>
	<path fill="#FFFFFF" d="M-3491.598-458.791v-124.485l-57.957,97.117h-6.623l-57.959-97.117v124.485h-10.555V-602.74h10.555
		l61.271,102.996l61.268-102.996h10.557v143.949H-3491.598z"/>
	<path fill="#FFFFFF" d="M-3369.076-469.957v11.166h-93.939v-143.975h93.967v10.979h-82.965v52.907h72.434v11.034h-72.434v57.889
		H-3369.076z"/>
</g>
<g>
	<path fill="#27AAE1" d="M-4063.725-493.254v34.472h-99.477v-143.975h99.541v34.473h-61.205v20.279h50.721v32.039h-50.721v22.712
		H-4063.725z"/>
</g>
<g>
	<path fill="#27AAE1" d="M-4041.428-458.869v-143.803h61.978c7.019,0,13.501,1.453,19.444,4.355
		c5.94,2.904,11.037,6.684,15.291,11.342s7.596,9.994,10.025,16c2.43,6.01,3.646,12.051,3.646,18.127
		c0,6.349-1.148,12.525-3.443,18.533c-2.297,6.01-5.504,11.341-9.621,16c-4.12,4.658-9.114,8.373-14.988,11.14
		c-5.873,2.769-12.322,4.152-19.342,4.152h-23.494v44.153H-4041.428z M-4001.932-537.455h20.861c2.43,0,4.689-1.113,6.785-3.34
		c2.092-2.229,3.139-6.246,3.139-12.053c0-5.939-1.215-9.99-3.645-12.152c-2.432-2.158-4.861-3.24-7.293-3.24h-19.848V-537.455z"/>
</g>
<circle fill="#2B3990" cx="-4299.642" cy="-625.239" r="13.493"/>
<circle fill="#2BB673" cx="-4263.173" cy="-625.239" r="13.493"/>
<circle fill="#F9ED32" cx="-4225.957" cy="-625.239" r="13.492"/>
<rect x="-4459.066" y="-1036.729" fill="#2B3990" width="1204" height="282"/>
<g>
	<path fill="#27AAE1" d="M-4274.217-883.553v70.771h-39.543v-143.975h30.822l57.793,73.204v-73.204h39.543v143.975h-31.431
		L-4274.217-883.553z"/>
</g>
<g>
	<path fill="#FFFFFF" d="M-3880.012-956.88h9.035l61.611,144.09h-11.09l-20.332-47.487h-69.619l-20.332,47.487h-11.295
		L-3880.012-956.88z M-3843.662-868.682l-31.832-75.335l-32.449,75.335H-3843.662z"/>
	<path fill="#FFFFFF" d="M-3780.805-937.368v124.676h-10.533V-956.86h8.055l102.85,126.91v-126.91h10.533v144.168h-9.707
		L-3780.805-937.368z"/>
	<path fill="#FFFFFF" d="M-3651.875-812.79v-143.975h9.158v143.975H-3651.875z"/>
	<path fill="#FFFFFF" d="M-3491.598-812.79v-124.485l-57.957,97.117h-6.623l-57.959-97.117v124.485h-10.555v-143.949h10.555
		l61.271,102.996l61.268-102.996h10.557v143.949H-3491.598z"/>
	<path fill="#FFFFFF" d="M-3369.076-823.956v11.166h-93.939v-143.975h93.967v10.979h-82.965v52.907h72.434v11.034h-72.434v57.889
		H-3369.076z"/>
</g>
<g>
	<path fill="#27AAE1" d="M-4063.725-847.254v34.472h-99.477v-143.975h99.541v34.473h-61.205v20.279h50.721v32.039h-50.721v22.712
		H-4063.725z"/>
</g>
<g>
	<path fill="#27AAE1" d="M-4041.428-812.868v-143.803h61.978c7.019,0,13.501,1.453,19.444,4.355
		c5.94,2.904,11.037,6.684,15.291,11.342s7.596,9.994,10.025,16c2.43,6.01,3.646,12.051,3.646,18.127
		c0,6.349-1.148,12.525-3.443,18.533c-2.297,6.01-5.504,11.341-9.621,16c-4.12,4.658-9.114,8.373-14.988,11.14
		c-5.873,2.769-12.322,4.152-19.342,4.152h-23.494v44.153H-4041.428z M-4001.932-891.454h20.861c2.43,0,4.689-1.113,6.785-3.34
		c2.092-2.229,3.139-6.246,3.139-12.053c0-5.939-1.215-9.99-3.645-12.152c-2.432-2.158-4.861-3.24-7.293-3.24h-19.848V-891.454z"/>
</g>
<circle fill="#2B3990" cx="-4299.642" cy="-979.238" r="13.493"/>
<circle fill="#2BB673" cx="-4263.173" cy="-979.238" r="13.493"/>
<circle fill="#F9ED32" cx="-4225.957" cy="-979.238" r="13.492"/>
<rect x="-4459.066" y="-1372.662" fill="#2BB673" width="1204" height="282"/>
<g>
	<path fill="#27AAE1" d="M-4274.217-1219.485v70.771h-39.543v-143.975h30.822l57.793,73.204v-73.204h39.543v143.975h-31.431
		L-4274.217-1219.485z"/>
</g>
<g>
	<path fill="#FFFFFF" d="M-3880.012-1292.813h9.035l61.611,144.09h-11.09l-20.332-47.487h-69.619l-20.332,47.487h-11.295
		L-3880.012-1292.813z M-3843.662-1204.614l-31.832-75.335l-32.449,75.335H-3843.662z"/>
	<path fill="#FFFFFF" d="M-3780.805-1273.301v124.676h-10.533v-144.168h8.055l102.85,126.91v-126.91h10.533v144.168h-9.707
		L-3780.805-1273.301z"/>
	<path fill="#FFFFFF" d="M-3651.875-1148.723v-143.975h9.158v143.975H-3651.875z"/>
	<path fill="#FFFFFF" d="M-3491.598-1148.723v-124.485l-57.957,97.117h-6.623l-57.959-97.117v124.485h-10.555v-143.949h10.555
		l61.271,102.996l61.268-102.996h10.557v143.949H-3491.598z"/>
	<path fill="#FFFFFF" d="M-3369.076-1159.889v11.166h-93.939v-143.975h93.967v10.979h-82.965v52.907h72.434v11.034h-72.434v57.889
		H-3369.076z"/>
</g>
<g>
	<path fill="#27AAE1" d="M-4063.725-1183.187v34.472h-99.477v-143.975h99.541v34.473h-61.205v20.279h50.721v32.039h-50.721v22.712
		H-4063.725z"/>
</g>
<g>
	<path fill="#27AAE1" d="M-4041.428-1148.801v-143.803h61.978c7.019,0,13.501,1.453,19.444,4.355
		c5.94,2.904,11.037,6.684,15.291,11.342s7.596,9.994,10.025,16c2.43,6.01,3.646,12.051,3.646,18.127
		c0,6.349-1.148,12.525-3.443,18.533c-2.297,6.01-5.504,11.341-9.621,16c-4.12,4.658-9.114,8.373-14.988,11.14
		c-5.873,2.769-12.322,4.152-19.342,4.152h-23.494v44.153H-4041.428z M-4001.932-1227.387h20.861c2.43,0,4.689-1.113,6.785-3.34
		c2.092-2.229,3.139-6.246,3.139-12.053c0-5.939-1.215-9.99-3.645-12.152c-2.432-2.158-4.861-3.24-7.293-3.24h-19.848V-1227.387z"/>
</g>
<circle fill="#2B3990" cx="-4299.642" cy="-1315.171" r="13.493"/>
<circle fill="#2BB673" cx="-4263.173" cy="-1315.171" r="13.493"/>
<circle fill="#F9ED32" cx="-4225.957" cy="-1315.171" r="13.492"/>
<rect x="-4459.066" y="-1717.463" fill="#6D6E71" width="1204" height="282"/>
<g>
	<path fill="#27AAE1" d="M-4274.217-1564.287v70.771h-39.543v-143.975h30.822l57.793,73.204v-73.204h39.543v143.975h-31.431
		L-4274.217-1564.287z"/>
</g>
<g>
	<path fill="#FFFFFF" d="M-3880.012-1637.614h9.035l61.611,144.09h-11.09l-20.332-47.487h-69.619l-20.332,47.487h-11.295
		L-3880.012-1637.614z M-3843.662-1549.416l-31.832-75.335l-32.449,75.335H-3843.662z"/>
	<path fill="#FFFFFF" d="M-3780.805-1618.102v124.676h-10.533v-144.168h8.055l102.85,126.91v-126.91h10.533v144.168h-9.707
		L-3780.805-1618.102z"/>
	<path fill="#FFFFFF" d="M-3651.875-1493.524v-143.975h9.158v143.975H-3651.875z"/>
	<path fill="#FFFFFF" d="M-3491.598-1493.524v-124.485l-57.957,97.117h-6.623l-57.959-97.117v124.485h-10.555v-143.949h10.555
		l61.271,102.996l61.268-102.996h10.557v143.949H-3491.598z"/>
	<path fill="#FFFFFF" d="M-3369.076-1504.69v11.166h-93.939v-143.975h93.967v10.979h-82.965v52.907h72.434v11.034h-72.434v57.889
		H-3369.076z"/>
</g>
<g>
	<path fill="#27AAE1" d="M-4063.725-1527.988v34.472h-99.477v-143.975h99.541v34.473h-61.205v20.279h50.721v32.039h-50.721v22.712
		H-4063.725z"/>
</g>
<g>
	<path fill="#27AAE1" d="M-4041.428-1493.602v-143.803h61.978c7.019,0,13.501,1.453,19.444,4.355
		c5.94,2.904,11.037,6.684,15.291,11.342s7.596,9.994,10.025,16c2.43,6.01,3.646,12.051,3.646,18.127
		c0,6.349-1.148,12.525-3.443,18.533c-2.297,6.01-5.504,11.341-9.621,16c-4.12,4.658-9.114,8.373-14.988,11.14
		c-5.873,2.769-12.322,4.152-19.342,4.152h-23.494v44.153H-4041.428z M-4001.932-1572.188h20.861c2.43,0,4.689-1.113,6.785-3.34
		c2.092-2.229,3.139-6.246,3.139-12.053c0-5.939-1.215-9.99-3.645-12.152c-2.432-2.158-4.861-3.24-7.293-3.24h-19.848V-1572.188z"/>
</g>
<circle fill="#2B3990" cx="-4299.642" cy="-1659.972" r="13.493"/>
<circle fill="#2BB673" cx="-4263.173" cy="-1659.972" r="13.493"/>
<circle fill="#F9ED32" cx="-4225.957" cy="-1659.972" r="13.492"/>
<rect x="-4459.066" y="370.48" fill="#FFF200" width="1204" height="282"/>
<g>
	<path fill="#27AAE1" d="M-4274.217,522.657v70.771h-39.543V449.453h30.822l57.793,73.204v-73.204h39.543v143.975h-31.431
		L-4274.217,522.657z"/>
</g>
<g>
	<path fill="#191919" d="M-3880.012,449.33h9.035l61.611,144.09h-11.09l-20.332-47.487h-69.619l-20.332,47.487h-11.295
		L-3880.012,449.33z M-3843.662,537.528l-31.832-75.335l-32.449,75.335H-3843.662z"/>
	<path fill="#191919" d="M-3780.805,468.841v124.676h-10.533V449.349h8.055l102.85,126.91v-126.91h10.533v144.168h-9.707
		L-3780.805,468.841z"/>
	<path fill="#191919" d="M-3651.875,593.419V449.445h9.158v143.975H-3651.875z"/>
	<path fill="#191919" d="M-3491.598,593.419V468.934l-57.957,97.117h-6.623l-57.959-97.117v124.485h-10.555V449.47h10.555
		l61.271,102.996l61.268-102.996h10.557v143.949H-3491.598z"/>
	<path fill="#191919" d="M-3369.076,582.253v11.166h-93.939V449.445h93.967v10.979h-82.965v52.907h72.434v11.034h-72.434v57.889
		H-3369.076z"/>
</g>
<g>
	<path fill="#27AAE1" d="M-4063.725,558.956v34.472h-99.477V449.453h99.541v34.473h-61.205v20.279h50.721v32.039h-50.721v22.712
		H-4063.725z"/>
</g>
<g>
	<path fill="#27AAE1" d="M-4041.428,593.341V449.539h61.978c7.019,0,13.501,1.453,19.444,4.355
		c5.94,2.904,11.037,6.684,15.291,11.342s7.596,9.994,10.025,16c2.43,6.01,3.646,12.051,3.646,18.127
		c0,6.349-1.148,12.525-3.443,18.533c-2.297,6.01-5.504,11.341-9.621,16c-4.12,4.658-9.114,8.373-14.988,11.14
		c-5.873,2.769-12.322,4.152-19.342,4.152h-23.494v44.153H-4041.428z M-4001.932,514.755h20.861c2.43,0,4.689-1.113,6.785-3.34
		c2.092-2.229,3.139-6.246,3.139-12.053c0-5.939-1.215-9.99-3.645-12.152c-2.432-2.158-4.861-3.24-7.293-3.24h-19.848V514.755z"/>
</g>
<circle fill="#2B3990" cx="-4299.642" cy="426.971" r="13.493"/>
<circle fill="#2BB673" cx="-4263.173" cy="426.971" r="13.493"/>
<circle fill="#F9ED32" cx="-4225.957" cy="426.971" r="13.492"/>
<rect x="-4459.066" y="705.666" fill="#2B3990" width="1204" height="282"/>
<g>
	<path fill="#27AAE1" d="M-4274.217,857.842v70.771h-39.543V784.638h30.822l57.793,73.204v-73.204h39.543v143.975h-31.431
		L-4274.217,857.842z"/>
</g>
<g>
	<path fill="#191919" d="M-3880.012,784.515h9.035l61.611,144.09h-11.09l-20.332-47.487h-69.619l-20.332,47.487h-11.295
		L-3880.012,784.515z M-3843.662,872.713l-31.832-75.335l-32.449,75.335H-3843.662z"/>
	<path fill="#191919" d="M-3780.805,804.027v124.676h-10.533V784.535h8.055l102.85,126.91v-126.91h10.533v144.168h-9.707
		L-3780.805,804.027z"/>
	<path fill="#191919" d="M-3651.875,928.605V784.63h9.158v143.975H-3651.875z"/>
	<path fill="#191919" d="M-3491.598,928.605V804.12l-57.957,97.117h-6.623l-57.959-97.117v124.485h-10.555V784.656h10.555
		l61.271,102.996l61.268-102.996h10.557v143.949H-3491.598z"/>
	<path fill="#191919" d="M-3369.076,917.439v11.166h-93.939V784.63h93.967v10.979h-82.965v52.907h72.434v11.034h-72.434v57.889
		H-3369.076z"/>
</g>
<g>
	<path fill="#27AAE1" d="M-4063.725,894.141v34.472h-99.477V784.638h99.541v34.473h-61.205v20.279h50.721v32.039h-50.721v22.712
		H-4063.725z"/>
</g>
<g>
	<path fill="#27AAE1" d="M-4041.428,928.527V784.724h61.978c7.019,0,13.501,1.453,19.444,4.355
		c5.94,2.904,11.037,6.684,15.291,11.342s7.596,9.994,10.025,16c2.43,6.01,3.646,12.051,3.646,18.127
		c0,6.349-1.148,12.525-3.443,18.533c-2.297,6.01-5.504,11.341-9.621,16c-4.12,4.658-9.114,8.373-14.988,11.14
		c-5.873,2.769-12.322,4.152-19.342,4.152h-23.494v44.153H-4041.428z M-4001.932,849.941h20.861c2.43,0,4.689-1.113,6.785-3.34
		c2.092-2.229,3.139-6.246,3.139-12.053c0-5.939-1.215-9.99-3.645-12.152c-2.432-2.158-4.861-3.24-7.293-3.24h-19.848V849.941z"/>
</g>
<circle fill="#2B3990" cx="-4299.642" cy="762.157" r="13.493"/>
<circle fill="#2BB673" cx="-4263.173" cy="762.157" r="13.493"/>
<circle fill="#F9ED32" cx="-4225.957" cy="762.157" r="13.492"/>
<rect x="-4459.066" y="1071.592" fill="#2BB673" width="1204" height="282"/>
<g>
	<path fill="#27AAE1" d="M-4274.217,1223.769v70.771h-39.543v-143.975h30.822l57.793,73.204v-73.204h39.543v143.975h-31.431
		L-4274.217,1223.769z"/>
</g>
<g>
	<path fill="#191919" d="M-3880.012,1150.442h9.035l61.611,144.09h-11.09l-20.332-47.487h-69.619l-20.332,47.487h-11.295
		L-3880.012,1150.442z M-3843.662,1238.64l-31.832-75.335l-32.449,75.335H-3843.662z"/>
	<path fill="#191919" d="M-3780.805,1169.954v124.676h-10.533v-144.168h8.055l102.85,126.91v-126.91h10.533v144.168h-9.707
		L-3780.805,1169.954z"/>
	<path fill="#191919" d="M-3651.875,1294.532v-143.975h9.158v143.975H-3651.875z"/>
	<path fill="#191919" d="M-3491.598,1294.532v-124.485l-57.957,97.117h-6.623l-57.959-97.117v124.485h-10.555v-143.949h10.555
		l61.271,102.996l61.268-102.996h10.557v143.949H-3491.598z"/>
	<path fill="#191919" d="M-3369.076,1283.366v11.166h-93.939v-143.975h93.967v10.979h-82.965v52.907h72.434v11.034h-72.434v57.889
		H-3369.076z"/>
</g>
<g>
	<path fill="#27AAE1" d="M-4063.725,1260.068v34.472h-99.477v-143.975h99.541v34.473h-61.205v20.279h50.721v32.039h-50.721v22.712
		H-4063.725z"/>
</g>
<g>
	<path fill="#27AAE1" d="M-4041.428,1294.454v-143.803h61.978c7.019,0,13.501,1.453,19.444,4.355
		c5.94,2.904,11.037,6.684,15.291,11.342s7.596,9.994,10.025,16c2.43,6.01,3.646,12.051,3.646,18.127
		c0,6.349-1.148,12.525-3.443,18.533c-2.297,6.01-5.504,11.341-9.621,16c-4.12,4.658-9.114,8.373-14.988,11.14
		c-5.873,2.769-12.322,4.152-19.342,4.152h-23.494v44.153H-4041.428z M-4001.932,1215.868h20.861c2.43,0,4.689-1.113,6.785-3.34
		c2.092-2.229,3.139-6.246,3.139-12.053c0-5.939-1.215-9.99-3.645-12.152c-2.432-2.158-4.861-3.24-7.293-3.24h-19.848V1215.868z"/>
</g>
<circle fill="#2B3990" cx="-4299.642" cy="1128.083" r="13.493"/>
<circle fill="#2BB673" cx="-4263.173" cy="1128.083" r="13.493"/>
<circle fill="#F9ED32" cx="-4225.957" cy="1128.083" r="13.492"/>
<rect x="-4459.066" y="1445.666" fill="#27AAE1" width="1204" height="282"/>
<g>
	<path fill="#FFFFFF" d="M-4274.217,1597.842v70.771h-39.543v-143.975h30.822l57.793,73.204v-73.204h39.543v143.975h-31.431
		L-4274.217,1597.842z"/>
</g>
<g>
	<path fill="#191919" d="M-3880.012,1524.515h9.035l61.611,144.09h-11.09l-20.332-47.487h-69.619l-20.332,47.487h-11.295
		L-3880.012,1524.515z M-3843.662,1612.713l-31.832-75.335l-32.449,75.335H-3843.662z"/>
	<path fill="#191919" d="M-3780.805,1544.027v124.676h-10.533v-144.168h8.055l102.85,126.91v-126.91h10.533v144.168h-9.707
		L-3780.805,1544.027z"/>
	<path fill="#191919" d="M-3651.875,1668.605V1524.63h9.158v143.975H-3651.875z"/>
	<path fill="#191919" d="M-3491.598,1668.605V1544.12l-57.957,97.117h-6.623l-57.959-97.117v124.485h-10.555v-143.949h10.555
		l61.271,102.996l61.268-102.996h10.557v143.949H-3491.598z"/>
	<path fill="#191919" d="M-3369.076,1657.439v11.166h-93.939V1524.63h93.967v10.979h-82.965v52.907h72.434v11.034h-72.434v57.889
		H-3369.076z"/>
</g>
<g>
	<path fill="#FFFFFF" d="M-4063.725,1634.141v34.472h-99.477v-143.975h99.541v34.473h-61.205v20.279h50.721v32.039h-50.721v22.712
		H-4063.725z"/>
</g>
<g>
	<path fill="#FFFFFF" d="M-4041.428,1668.527v-143.803h61.978c7.019,0,13.501,1.453,19.444,4.355
		c5.94,2.904,11.037,6.684,15.291,11.342s7.596,9.994,10.025,16c2.43,6.01,3.646,12.051,3.646,18.127
		c0,6.349-1.148,12.525-3.443,18.533c-2.297,6.01-5.504,11.341-9.621,16c-4.12,4.658-9.114,8.373-14.988,11.14
		c-5.873,2.769-12.322,4.152-19.342,4.152h-23.494v44.153H-4041.428z M-4001.932,1589.941h20.861c2.43,0,4.689-1.113,6.785-3.34
		c2.092-2.229,3.139-6.246,3.139-12.053c0-5.939-1.215-9.99-3.645-12.152c-2.432-2.158-4.861-3.24-7.293-3.24h-19.848V1589.941z"/>
</g>
<circle fill="#2B3990" cx="-4299.642" cy="1502.157" r="13.493"/>
<circle fill="#2BB673" cx="-4263.173" cy="1502.157" r="13.493"/>
<circle fill="#F9ED32" cx="-4225.957" cy="1502.157" r="13.492"/>
<rect x="-4459.066" y="1765.666" fill="#27AAE1" width="1204" height="282"/>
<g>
	<path fill="#414042" d="M-4274.217,1917.842v70.771h-39.543v-143.975h30.822l57.793,73.204v-73.204h39.543v143.975h-31.431
		L-4274.217,1917.842z"/>
</g>
<g>
	<path fill="#FFFFFF" d="M-3880.012,1844.515h9.035l61.611,144.09h-11.09l-20.332-47.487h-69.619l-20.332,47.487h-11.295
		L-3880.012,1844.515z M-3843.662,1932.713l-31.832-75.335l-32.449,75.335H-3843.662z"/>
	<path fill="#FFFFFF" d="M-3780.805,1864.027v124.676h-10.533v-144.168h8.055l102.85,126.91v-126.91h10.533v144.168h-9.707
		L-3780.805,1864.027z"/>
	<path fill="#FFFFFF" d="M-3651.875,1988.605V1844.63h9.158v143.975H-3651.875z"/>
	<path fill="#FFFFFF" d="M-3491.598,1988.605V1864.12l-57.957,97.117h-6.623l-57.959-97.117v124.485h-10.555v-143.949h10.555
		l61.271,102.996l61.268-102.996h10.557v143.949H-3491.598z"/>
	<path fill="#FFFFFF" d="M-3369.076,1977.439v11.166h-93.939V1844.63h93.967v10.979h-82.965v52.907h72.434v11.034h-72.434v57.889
		H-3369.076z"/>
</g>
<g>
	<path fill="#414042" d="M-4063.725,1954.141v34.472h-99.477v-143.975h99.541v34.473h-61.205v20.279h50.721v32.039h-50.721v22.712
		H-4063.725z"/>
</g>
<g>
	<path fill="#414042" d="M-4041.428,1988.527v-143.803h61.978c7.019,0,13.501,1.453,19.444,4.355
		c5.94,2.904,11.037,6.684,15.291,11.342s7.596,9.994,10.025,16c2.43,6.01,3.646,12.051,3.646,18.127
		c0,6.349-1.148,12.525-3.443,18.533c-2.297,6.01-5.504,11.341-9.621,16c-4.12,4.658-9.114,8.373-14.988,11.14
		c-5.873,2.769-12.322,4.152-19.342,4.152h-23.494v44.153H-4041.428z M-4001.932,1909.941h20.861c2.43,0,4.689-1.113,6.785-3.34
		c2.092-2.229,3.139-6.246,3.139-12.053c0-5.939-1.215-9.99-3.645-12.152c-2.432-2.158-4.861-3.24-7.293-3.24h-19.848V1909.941z"/>
</g>
<circle fill="#2B3990" cx="-4299.642" cy="1822.157" r="13.493"/>
<circle fill="#2BB673" cx="-4263.173" cy="1822.157" r="13.493"/>
<circle fill="#F9ED32" cx="-4225.957" cy="1822.157" r="13.492"/>
<g>
	<path fill="#414042" d="M-8460.979,729.204l-8.016-16.033c-3.285-6.175-5.387-10.774-7.885-15.898h-0.262
		c-1.841,5.124-4.074,9.724-6.834,15.898l-7.359,16.033h-22.864l25.624-44.81l-24.704-43.76h22.996l7.753,16.163
		c2.629,5.387,4.6,9.725,6.701,14.719h0.263c2.104-5.651,3.812-9.594,6.046-14.719l7.49-16.163h22.865l-24.969,43.233l26.282,45.336
		H-8460.979z"/>
</g>
<g>
	<path fill="#414042" d="M-8460.979,1994.235l-8.016-16.033c-3.285-6.175-5.387-10.774-7.885-15.898h-0.262
		c-1.841,5.124-4.074,9.724-6.834,15.898l-7.359,16.033h-22.864l25.624-44.81l-24.704-43.76h22.996l7.753,16.163
		c2.629,5.387,4.6,9.725,6.701,14.719h0.263c2.104-5.651,3.812-9.594,6.046-14.719l7.49-16.163h22.865l-24.969,43.233l26.282,45.336
		H-8460.979z"/>
</g>
<g>
	<path fill="#414042" d="M-7111.521,729.204l-8.016-16.033c-3.285-6.175-5.387-10.774-7.884-15.898h-0.263
		c-1.84,5.124-4.074,9.724-6.834,15.898l-7.358,16.033h-22.865l25.625-44.81l-24.705-43.76h22.996l7.752,16.163
		c2.629,5.387,4.6,9.725,6.702,14.719h0.263c2.103-5.651,3.812-9.594,6.045-14.719l7.49-16.163h22.865l-24.968,43.233l26.282,45.336
		H-7111.521z"/>
</g>
<g>
	<path fill="#414042" d="M-7111.521,2032.811l-8.016-16.033c-3.285-6.175-5.387-10.774-7.884-15.898h-0.263
		c-1.84,5.124-4.074,9.724-6.834,15.898l-7.358,16.033h-22.865l25.625-44.81l-24.705-43.76h22.996l7.752,16.163
		c2.629,5.387,4.6,9.725,6.702,14.719h0.263c2.103-5.651,3.812-9.594,6.045-14.719l7.49-16.163h22.865l-24.968,43.233l26.282,45.336
		H-7111.521z"/>
</g>
<g>
	<path fill="#414042" d="M-5783.59,2032.811l-8.016-16.033c-3.285-6.175-5.387-10.774-7.884-15.898h-0.263
		c-1.84,5.124-4.074,9.724-6.834,15.898l-7.358,16.033h-22.865l25.625-44.81l-24.705-43.76h22.996l7.752,16.163
		c2.629,5.387,4.6,9.725,6.702,14.719h0.263c2.103-5.651,3.812-9.594,6.045-14.719l7.49-16.163h22.865l-24.968,43.233l26.282,45.336
		H-5783.59z"/>
</g>
<g>
	<path fill="#414042" d="M-5783.59,749.95l-8.016-16.033c-3.285-6.175-5.387-10.774-7.884-15.898h-0.263
		c-1.84,5.124-4.074,9.724-6.834,15.898l-7.358,16.033h-22.865l25.625-44.81l-24.705-43.76h22.996l7.752,16.163
		c2.629,5.387,4.6,9.725,6.702,14.719h0.263c2.103-5.651,3.812-9.594,6.045-14.719l7.49-16.163h22.865l-24.968,43.233l26.282,45.336
		H-5783.59z"/>
</g>
<g>
	<path fill="#414042" d="M-8479.721-524.176l-8.016-16.033c-3.285-6.175-5.387-10.774-7.885-15.898h-0.262
		c-1.841,5.124-4.074,9.724-6.834,15.898l-7.359,16.033h-22.864l25.624-44.81l-24.704-43.76h22.996l7.753,16.163
		c2.629,5.387,4.6,9.725,6.701,14.719h0.264c2.103-5.651,3.811-9.594,6.045-14.719l7.49-16.163h22.865l-24.969,43.233l26.282,45.336
		H-8479.721z"/>
</g>
<g>
	<path fill="#414042" d="M-3125.499-1173.721l-8.016-16.033c-3.285-6.175-5.388-10.774-7.884-15.898h-0.264
		c-1.84,5.124-4.074,9.724-6.834,15.898l-7.357,16.033h-22.865l25.625-44.81l-24.705-43.76h22.996l7.752,16.163
		c2.629,5.387,4.601,9.725,6.703,14.719h0.262c2.104-5.651,3.813-9.594,6.046-14.719l7.49-16.163h22.864l-24.967,43.233
		l26.281,45.336H-3125.499z"/>
</g>
<g>
	<path fill="#414042" d="M-3125.499-851.445l-8.016-16.033c-3.285-6.175-5.388-10.774-7.884-15.898h-0.264
		c-1.84,5.124-4.074,9.724-6.834,15.898l-7.357,16.033h-22.865l25.625-44.81l-24.705-43.76h22.996l7.752,16.163
		c2.629,5.387,4.601,9.725,6.703,14.719h0.262c2.104-5.651,3.813-9.594,6.046-14.719l7.49-16.163h22.864l-24.967,43.233
		l26.281,45.336H-3125.499z"/>
</g>
<g>
	<path fill="#414042" d="M-3125.499-479.892l-8.016-16.033c-3.285-6.175-5.388-10.774-7.884-15.898h-0.264
		c-1.84,5.124-4.074,9.724-6.834,15.898l-7.357,16.033h-22.865l25.625-44.81l-24.705-43.76h22.996l7.752,16.163
		c2.629,5.387,4.601,9.725,6.703,14.719h0.262c2.104-5.651,3.813-9.594,6.046-14.719l7.49-16.163h22.864l-24.967,43.233
		l26.281,45.336H-3125.499z"/>
</g>
<g>
	<path fill="#414042" d="M-3125.499,553.93l-8.016-16.033c-3.285-6.175-5.388-10.774-7.884-15.898h-0.264
		c-1.84,5.124-4.074,9.724-6.834,15.898l-7.357,16.033h-22.865l25.625-44.81l-24.705-43.76h22.996l7.752,16.163
		c2.629,5.387,4.601,9.725,6.703,14.719h0.262c2.104-5.651,3.813-9.594,6.046-14.719l7.49-16.163h22.864l-24.967,43.233
		l26.281,45.336H-3125.499z"/>
</g>
<g>
	<path fill="#414042" d="M-3125.499,876.207l-8.016-16.033c-3.285-6.175-5.388-10.774-7.884-15.898h-0.264
		c-1.84,5.124-4.074,9.724-6.834,15.898l-7.357,16.033h-22.865l25.625-44.81l-24.705-43.76h22.996l7.752,16.163
		c2.629,5.387,4.601,9.725,6.703,14.719h0.262c2.104-5.651,3.813-9.594,6.046-14.719l7.49-16.163h22.864l-24.967,43.233
		l26.281,45.336H-3125.499z"/>
</g>
<g>
	<path fill="#414042" d="M-3125.499,1247.76l-8.016-16.033c-3.285-6.176-5.388-10.775-7.884-15.898h-0.264
		c-1.84,5.123-4.074,9.723-6.834,15.898l-7.357,16.033h-22.865l25.625-44.811l-24.705-43.76h22.996l7.752,16.164
		c2.629,5.387,4.601,9.725,6.703,14.719h0.262c2.104-5.652,3.813-9.594,6.046-14.719l7.49-16.164h22.864l-24.967,43.234
		l26.281,45.336H-3125.499z"/>
</g>
<g>
	<path fill="#414042" d="M-3125.499,1613.929l-8.016-16.033c-3.285-6.175-5.388-10.774-7.884-15.898h-0.264
		c-1.84,5.124-4.074,9.724-6.834,15.898l-7.357,16.033h-22.865l25.625-44.81l-24.705-43.76h22.996l7.752,16.163
		c2.629,5.387,4.601,9.725,6.703,14.719h0.262c2.104-5.651,3.813-9.594,6.046-14.719l7.49-16.163h22.864l-24.967,43.233
		l26.281,45.336H-3125.499z"/>
</g>
<g>
	<path fill="#414042" d="M-3125.499,1936.206l-8.016-16.033c-3.285-6.175-5.388-10.774-7.884-15.898h-0.264
		c-1.84,5.124-4.074,9.724-6.834,15.898l-7.357,16.033h-22.865l25.625-44.81l-24.705-43.76h22.996l7.752,16.163
		c2.629,5.387,4.601,9.725,6.703,14.719h0.262c2.104-5.651,3.813-9.594,6.046-14.719l7.49-16.163h22.864l-24.967,43.233
		l26.281,45.336H-3125.499z"/>
</g>
</svg>
