<?xml version="1.0" encoding="utf-8"?>
<!-- Generator: Adobe Illustrator 16.0.0, SVG Export Plug-In . SVG Version: 6.00 Build 0)  -->
<!DOCTYPE svg PUBLIC "-//W3C//DTD SVG 1.1//EN" "http://www.w3.org/Graphics/SVG/1.1/DTD/svg11.dtd">
<svg version="1.1" id="Layer_1" xmlns="http://www.w3.org/2000/svg" xmlns:xlink="http://www.w3.org/1999/xlink" x="0px" y="0px"
	 width="44px" height="47px" viewBox="0 0 44 47" enable-background="new 0 0 44 47" xml:space="preserve">
<g>
	<radialGradient id="SVGID_1_" cx="-846.8311" cy="-173.0957" r="199.681" gradientUnits="userSpaceOnUse">
		<stop  offset="0" style="stop-color:#333334"/>
		<stop  offset="0.94" style="stop-color:#373738"/>
		<stop  offset="1" style="stop-color:#383839"/>
	</radialGradient>
	
		<rect x="-1037.831" y="-381.096" fill="url(#SVGID_1_)" stroke="#A7A9AC" stroke-width="5" stroke-miterlimit="10" width="382" height="416"/>
	<g>
		<path fill="#FBAC47" d="M-967.603-359.989v45.139h19.852v46.675h-19.852c0,9.375,1.477,15.834,4.431,19.379
			s8.369,5.317,16.248,5.317v46.438c-2.286,0.078-3.979,0.118-5.081,0.118c-10.006,0-19.438-2.323-28.301-6.972
			c-8.862-4.647-15.973-10.949-21.328-18.906c-6.776-10.162-10.162-23.633-10.162-40.412v-96.776H-967.603z"/>
		<path fill="#FBAC47" d="M-859.68-302.325v42.539h-13.353v61.091h-47.975v-161.294h47.975v57.664H-859.68z M-803.552-359.989
			v161.294h-47.975v-161.294H-803.552z"/>
		<path fill="#FBAC47" d="M-683.575-297.244v35.922h-31.313c-4.254,0-7.267,0.631-9.039,1.891c-1.772,1.261-2.659,3.388-2.659,6.381
			c0,3.388,0.905,5.613,2.718,6.676c1.812,1.063,5.514,1.595,11.108,1.595h32.258v46.084h-37.694
			c-17.725,0-31.274-4.233-40.648-12.703c-9.375-8.467-14.062-20.697-14.062-36.69v-63.218c0-15.439,4.432-27.414,13.294-35.922
			s21.328-12.762,37.398-12.762h41.712v46.32h-30.604c-8.272,0-12.408,2.679-12.408,8.035c0,3.152,0.984,5.338,2.954,6.558
			c1.969,1.222,5.475,1.832,10.517,1.832H-683.575z"/>
	</g>
	<g>
		<path fill="#2FBFC9" d="M-982.8-143.26v21.094h-6.855v19.043h-23.789v-50.859c0-9.844,2.686-17.49,8.057-22.939
			s12.92-8.174,22.646-8.174c9.375,0,16.309,2.471,20.801,7.412c4.492,4.942,6.738,12.568,6.738,22.881v51.68h-23.789v-50.098
			c0-3.125-0.371-5.292-1.113-6.504c-0.742-1.21-2.07-1.816-3.984-1.816c-3.711,0-5.566,2.774-5.566,8.32v9.961H-982.8z"/>
		<path fill="#2FBFC9" d="M-940.629-103.123v-51.914c0-9.101,2.725-16.386,8.174-21.855c5.449-5.468,12.705-8.203,21.768-8.203
			c9.023,0,15.928,2.657,20.713,7.969c4.785,5.313,7.178,12.949,7.178,22.91v51.094h-23.789v-51.094
			c0-4.882-1.738-7.324-5.215-7.324c-3.359,0-5.039,2.442-5.039,7.324v51.094H-940.629z"/>
		<path fill="#2FBFC9" d="M-842.734-183.104v79.98h-23.789v-79.98H-842.734z"/>
		<path fill="#2FBFC9" d="M-826.579-103.123v-57.656c0-7.148,2.168-12.988,6.504-17.52c4.336-4.531,9.961-6.797,16.875-6.797
			c8.203,0,14.511,3.77,18.926,11.309c2.695-4.062,5.585-6.962,8.672-8.701c3.085-1.738,6.894-2.607,11.426-2.607
			c7.187,0,12.694,2.266,16.523,6.797c3.827,4.532,5.742,11.055,5.742,19.57v55.605H-765.7v-52.031c0-2.578-0.205-4.287-0.615-5.127
			c-0.41-0.839-1.241-1.26-2.49-1.26c-2.344,0-3.516,1.992-3.516,5.977v52.441h-23.789v-52.031c0-2.539-0.216-4.238-0.645-5.098
			c-0.431-0.859-1.271-1.289-2.52-1.289c-2.344,0-3.516,2.129-3.516,6.387v52.031H-826.579z"/>
		<path fill="#2FBFC9" d="M-683.041-151.99v17.813h-15.527c-2.109,0-3.604,0.313-4.482,0.938c-0.879,0.625-1.318,1.68-1.318,3.164
			c0,1.68,0.449,2.783,1.348,3.311s2.734,0.791,5.508,0.791h15.996v22.852h-18.691c-8.789,0-15.508-2.099-20.156-6.299
			c-4.648-4.199-6.973-10.263-6.973-18.193v-31.348c0-7.656,2.197-13.594,6.592-17.813s10.576-6.328,18.545-6.328h20.684v22.969
			h-15.176c-4.102,0-6.152,1.329-6.152,3.984c0,1.563,0.488,2.647,1.465,3.252c0.977,0.606,2.715,0.908,5.215,0.908H-683.041z"/>
	</g>
	<g>
		<path fill="#EF373F" d="M-977.57,21.105V12.39c-11.621-3.223-20.91-9.448-27.868-18.677s-10.438-19.922-10.438-32.08
			c0-16.064,6.054-29.224,18.164-39.478c10.059-8.496,21.508-12.744,34.351-12.744c16.553,0,29.907,5.982,40.063,17.944
			c8.203,9.668,12.305,20.826,12.305,33.472c0,12.403-3.638,23.511-10.913,33.325C-928.45,3.04-937.58,9.119-949.299,12.39v8.716
			H-977.57z M-976.545-30.311h26.294v11.206c5.859-5.028,8.789-11.4,8.789-19.116c0-6.2-2.173-11.572-6.519-16.113
			c-4.347-4.541-9.474-6.812-15.381-6.812c-5.958,0-11.108,2.271-15.454,6.812c-4.347,4.541-6.519,9.913-6.519,16.113
			c0,7.91,2.93,14.282,8.789,19.116V-30.311z"/>
		<path fill="#EF373F" d="M-823.392-88.099v64.819c0,11.426-3.405,20.557-10.217,27.393c-6.812,6.837-15.883,10.254-27.21,10.254
			c-11.279,0-19.91-3.32-25.891-9.961c-5.982-6.64-8.973-16.187-8.973-28.638v-63.867h29.736v63.794
			c0,6.104,2.172,9.155,6.519,9.155c4.199,0,6.299-3.051,6.299-9.155v-63.794H-823.392z"/>
		<path fill="#EF373F" d="M-772.264-88.099v99.976H-802v-99.976H-772.264z"/>
		<path fill="#EF373F" d="M-681.439-88.099l-31.055,71.265h30.688v28.711h-75.439l30.908-71.265h-32.666v-28.711H-681.439z"/>
	</g>
	<text transform="matrix(1.1 0 0 1.07 -1058.1274 75.3604)" fill="#0F0F0F" font-family="'ChunkFive-Roman'" font-size="22.3024">See how much of an Otaku are you!</text>
</g>
<text transform="matrix(1 0 0 1 -443.2324 -344.3716)"><tspan x="0" y="0" fill="#FBAC47" font-family="'Bauhaus93'" font-size="64.2197" letter-spacing="1">the</tspan><tspan x="-91.629" y="72" fill="#FBAC47" font-family="'Bauhaus93'" font-size="64.2197" letter-spacing="1">ANIME</tspan><tspan x="-50.644" y="144" fill="#FBAC47" font-family="'Bauhaus93'" font-size="64.2197" letter-spacing="1">QUIZ</tspan></text>
<rect x="-340" y="-387.993" fill="#2FBFC9" width="6" height="262.096"/>
<text transform="matrix(1.25 0 0 1.07 -329.2549 -132.7939)" fill="#EF373F" font-family="'Fairview-Regular'" font-size="20.5922">See how much of an Otaku are you!</text>
<g>
	<g>
		<defs>
			<rect id="SVGID_2_" y="0.16" width="43.92" height="46.8"/>
		</defs>
		<clipPath id="SVGID_3_">
			<use xlink:href="#SVGID_2_"  overflow="visible"/>
		</clipPath>
		<path clip-path="url(#SVGID_3_)" d="M43.328,41.936L32.484,30.658c2.789-3.317,4.316-7.489,4.316-11.832
			c0-10.145-8.254-18.399-18.402-18.399C8.254,0.427,0,8.681,0,18.826c0,10.148,8.254,18.402,18.398,18.402
			c3.809,0,7.441-1.148,10.543-3.332l10.93,11.367c0.457,0.477,1.07,0.737,1.73,0.737c0.621,0,1.211-0.237,1.66-0.671
			C44.219,44.412,44.246,42.893,43.328,41.936L43.328,41.936z M18.398,5.228C25.898,5.228,32,11.33,32,18.826
			c0,7.5-6.102,13.601-13.602,13.601c-7.496,0-13.598-6.101-13.598-13.601C4.801,11.33,10.902,5.228,18.398,5.228L18.398,5.228z
			 M18.398,5.228"/>
	</g>
</g>
</svg>
