<svg id="Layer_1" xmlns="http://www.w3.org/2000/svg" xmlns:xlink="http://www.w3.org/1999/xlink" width="44" height="47" viewBox="0 0 44 47"><radialGradient id="SVGID_1_" cx="-846.831" cy="-173.096" r="199.681" gradientUnits="userSpaceOnUse"><stop offset="0" stop-color="#333334"/><stop offset=".94" stop-color="#373738"/><stop offset="1" stop-color="#383839"/></radialGradient><path fill="url(#SVGID_1_)" stroke="#A7A9AC" stroke-width="5" stroke-miterlimit="10" d="M-1037.831-381.096h382v416h-382z"/><g fill="#FBAC47"><path d="M-967.603-359.989v45.139h19.852v46.675h-19.852c0 9.375 1.477 15.834 4.431 19.379s8.369 5.317 16.248 5.317v46.438c-2.286.078-3.979.118-5.081.118-10.006 0-19.438-2.323-28.301-6.972-8.862-4.647-15.973-10.949-21.328-18.906-6.776-10.162-10.162-23.633-10.162-40.412v-96.776h44.193zM-859.68-302.325v42.539h-13.353v61.091h-47.975v-161.294h47.975v57.664h13.353zm56.128-57.664v161.294h-47.975v-161.294h47.975zM-683.575-297.244v35.922h-31.313c-4.254 0-7.267.631-9.039 1.891-1.772 1.261-2.659 3.388-2.659 6.381 0 3.388.905 5.613 2.718 6.676 1.812 1.063 5.514 1.595 11.108 1.595h32.258v46.084h-37.694c-17.725 0-31.274-4.233-40.648-12.703-9.375-8.467-14.062-20.697-14.062-36.69v-63.218c0-15.439 4.432-27.414 13.294-35.922s21.328-12.762 37.398-12.762h41.712v46.32h-30.604c-8.272 0-12.408 2.679-12.408 8.035 0 3.152.984 5.338 2.954 6.558 1.969 1.222 5.475 1.832 10.517 1.832h26.468z"/></g><g fill="#2FBFC9"><path d="M-982.8-143.26v21.094h-6.855v19.043h-23.789v-50.859c0-9.844 2.686-17.49 8.057-22.939s12.92-8.174 22.646-8.174c9.375 0 16.309 2.471 20.801 7.412 4.492 4.942 6.738 12.568 6.738 22.881v51.68h-23.789v-50.098c0-3.125-.371-5.292-1.113-6.504-.742-1.21-2.07-1.816-3.984-1.816-3.711 0-5.566 2.774-5.566 8.32v9.961h6.854zM-940.629-103.123v-51.914c0-9.101 2.725-16.386 8.174-21.855 5.449-5.468 12.705-8.203 21.768-8.203 9.023 0 15.928 2.657 20.713 7.969 4.785 5.313 7.178 12.949 7.178 22.91v51.094h-23.789v-51.094c0-4.882-1.738-7.324-5.215-7.324-3.359 0-5.039 2.442-5.039 7.324v51.094h-23.79zM-842.734-183.104v79.98h-23.789v-79.98h23.789zM-826.579-103.123v-57.656c0-7.148 2.168-12.988 6.504-17.52 4.336-4.531 9.961-6.797 16.875-6.797 8.203 0 14.511 3.77 18.926 11.309 2.695-4.062 5.585-6.962 8.672-8.701 3.085-1.738 6.894-2.607 11.426-2.607 7.187 0 12.694 2.266 16.523 6.797 3.827 4.532 5.742 11.055 5.742 19.57v55.605H-765.7v-52.031c0-2.578-.205-4.287-.615-5.127-.41-.839-1.241-1.26-2.49-1.26-2.344 0-3.516 1.992-3.516 5.977v52.441h-23.789v-52.031c0-2.539-.216-4.238-.645-5.098-.431-.859-1.271-1.289-2.52-1.289-2.344 0-3.516 2.129-3.516 6.387v52.031h-23.788zM-683.041-151.99v17.813h-15.527c-2.109 0-3.604.313-4.482.938-.879.625-1.318 1.68-1.318 3.164 0 1.68.449 2.783 1.348 3.311s2.734.791 5.508.791h15.996v22.852h-18.691c-8.789 0-15.508-2.099-20.156-6.299-4.648-4.199-6.973-10.263-6.973-18.193v-31.348c0-7.656 2.197-13.594 6.592-17.813s10.576-6.328 18.545-6.328h20.684v22.969h-15.176c-4.102 0-6.152 1.329-6.152 3.984 0 1.563.488 2.647 1.465 3.252.977.606 2.715.908 5.215.908h13.122z"/></g><g fill="#EF373F"><path d="M-977.57 21.105V12.39c-11.621-3.223-20.91-9.448-27.868-18.677s-10.438-19.922-10.438-32.08c0-16.064 6.054-29.224 18.164-39.478 10.059-8.496 21.508-12.744 34.351-12.744 16.553 0 29.907 5.982 40.063 17.944 8.203 9.668 12.305 20.826 12.305 33.472 0 12.403-3.638 23.511-10.913 33.325-6.544 8.888-15.674 14.967-27.393 18.238v8.716h-28.271zm1.025-51.416h26.294v11.206c5.859-5.028 8.789-11.4 8.789-19.116 0-6.2-2.173-11.572-6.519-16.113-4.347-4.541-9.474-6.812-15.381-6.812-5.958 0-11.108 2.271-15.454 6.812-4.347 4.541-6.519 9.913-6.519 16.113 0 7.91 2.93 14.282 8.789 19.116v-11.206zM-823.392-88.099v64.819c0 11.426-3.405 20.557-10.217 27.393-6.812 6.837-15.883 10.254-27.21 10.254-11.279 0-19.91-3.32-25.891-9.961-5.982-6.64-8.973-16.187-8.973-28.638v-63.867h29.736v63.794c0 6.104 2.172 9.155 6.519 9.155 4.199 0 6.299-3.051 6.299-9.155v-63.794h29.737zM-772.264-88.099v99.976H-802v-99.976h29.736zM-681.439-88.099l-31.055 71.265h30.688v28.711h-75.439l30.908-71.265h-32.666v-28.711h77.564z"/></g><text transform="matrix(1.1 0 0 1.07 -1058.127 75.36)" fill="#0F0F0F" font-family="'ChunkFive-Roman'" font-size="22.302">See how much of an Otaku are you!</text><text transform="translate(-443.232 -344.372)"><tspan x="0" y="0" fill="#FBAC47" font-family="'Bauhaus93'" font-size="64.22" letter-spacing="1">the</tspan><tspan x="-91.629" y="72" fill="#FBAC47" font-family="'Bauhaus93'" font-size="64.22" letter-spacing="1">ANIME</tspan><tspan x="-50.644" y="144" fill="#FBAC47" font-family="'Bauhaus93'" font-size="64.22" letter-spacing="1">QUIZ</tspan></text><path fill="#2FBFC9" d="M-340-387.993h6v262.096h-6z"/><text transform="matrix(1.25 0 0 1.07 -329.255 -132.794)" fill="#EF373F" font-family="'Fairview-Regular'" font-size="20.592">See how much of an Otaku are you!</text><g><defs><path id="SVGID_2_" d="M0 .16h43.92v46.8H0z"/></defs><clipPath id="SVGID_3_"><use xlink:href="#SVGID_2_" overflow="visible"/></clipPath><path clip-path="url(#SVGID_3_)" d="M43.328 41.936L32.484 30.658A18.35 18.35 0 0 0 36.8 18.826C36.8 8.681 28.546.427 18.398.427 8.254.427 0 8.681 0 18.826c0 10.148 8.254 18.402 18.398 18.402 3.809 0 7.441-1.148 10.543-3.332l10.93 11.367a2.37 2.37 0 0 0 1.73.737c.621 0 1.211-.237 1.66-.671a2.398 2.398 0 0 0 .067-3.393zM18.398 5.228C25.898 5.228 32 11.33 32 18.826c0 7.5-6.102 13.601-13.602 13.601-7.496 0-13.598-6.101-13.598-13.601.001-7.496 6.102-13.598 13.598-13.598zm0 0"/></g></svg>